<?xml version="1.0" standalone="no"?>
<!DOCTYPE svg PUBLIC "-//W3C//DTD SVG 1.1//EN"
"http://www.w3.org/Graphics/SVG/1.1/DTD/svg11.dtd">
<svg width="10.9988in" height="10.9994in" viewBox="-10.4988 -1.49969 10.9988 10.9994" xmlns="http://www.w3.org/2000/svg" version = "1.1">
<title>EarthHack.123dx</title>
<desc> made with 123D Design </desc>
<path d="M -8.98688 1.42963 L -8.98814 1.4306 L -9.0454 1.48531 L -9.04655 1.48641 L -9.09759 1.54695 L -9.09862 1.54817 L -9.14285 1.61385 L -9.14374 1.61517 L -9.18066 1.68523 L -9.1814 1.68664 L -9.21056 1.76026 L -9.21115 1.76174 L -9.23222 1.83808 L -9.23265 1.83961 L -9.24539 1.91777 L -9.24565 1.91934 L -9.24991 1.99841 L -9.25 2 L -9.24573 2.07908 L -9.24565 2.08066 L -9.2329 2.15882 L -9.23265 2.16039 L -9.21157 2.23673 L -9.21115 2.23826 L -9.18198 2.31188 L -9.1814 2.31336 L -9.14448 2.38342 L -9.14374 2.38483 L -9.09951 2.45051 L -9.09862 2.45183 L -9.04758 2.51238 L -9.04655 2.51359 L -8.98929 2.5683 L -8.98814 2.5694 L -8.92533 2.61763 L -8.92407 2.6186 L -8.85644 2.65979 L -8.85508 2.66062 L -8.78341 2.6943 L -8.78197 2.69497 L -8.70709 2.72075 L -8.70559 2.72127 L -8.62838 2.73885 L -8.62682 2.7392 L -8.54817 2.74837 L -8.54659 2.74855 L -8.4674 2.74921 L -8.46581 2.74922 L -8.38701 2.74135 L -8.38543 2.7412 L -8.30793 2.7249 L -8.30638 2.72458 L -8.23108 2.70004 L -8.22957 2.69955 L -8.15735 2.66706 L -8.1559 2.66641 L -8.0876 2.62634 L -8.08622 2.62553 L -8.02262 2.57835 L -8.02135 2.5774 L -7.96319 2.52365 L -7.96202 2.52257 L -7.90999 2.46288 L -7.90894 2.46168 L -7.86362 2.39674 L -7.86271 2.39543 L -7.86195 2.39404 L -7.82388 2.3246 L -7.82327 2.32313 L -7.79289 2.25 L -7.75084 2.25 L -7.75 2.25 L -7.75 3.47539 L -7.75 3.5 L -7.74991 3.5016 L -7.7456 3.58109 L -7.74534 3.58267 L -7.73246 3.66123 L -7.73204 3.66277 L -7.71074 3.73948 L -7.71015 3.74096 L -7.68068 3.81492 L -7.67993 3.81633 L -7.64264 3.88666 L -7.64174 3.88799 L -7.59707 3.95388 L -7.59603 3.9551 L -7.54449 4.01577 L -7.54333 4.01687 L -7.48554 4.07162 L -7.48427 4.07259 L -7.42089 4.12077 L -7.41952 4.12159 L -7.3513 4.16263 L -7.34985 4.1633 L -7.2776 4.19673 L -7.27609 4.19724 L -7.20065 4.22266 L -7.19908 4.22301 L -7.12134 4.24012 L -7.11975 4.24029 L -7.0406 4.2489 L -7.039 4.2489 L -6.95939 4.2489 L -6.95781 4.24873 L -6.87866 4.24012 L -6.8771 4.23978 L -6.79935 4.22266 L -6.79784 4.22215 L -6.72239 4.19673 L -6.72094 4.19606 L -6.64869 4.16263 L -6.64732 4.16181 L -6.57911 4.12077 L -6.57784 4.1198 L -6.51446 4.07162 L -6.5133 4.07052 L -6.4555 4.01577 L -6.45447 4.01456 L -6.40293 3.95388 L -6.40203 3.95256 L -6.35736 3.88666 L -6.35661 3.88525 L -6.31932 3.81492 L -6.31873 3.81343 L -6.28926 3.73948 L -6.28883 3.73794 L -6.26753 3.66123 L -6.26727 3.65965 L -6.2544 3.58109 L -6.25431 3.57949 L -6.25 3.5 L -6.25 2.51968 L -6.25 2.5 L -6.24993 2.49917 L -6.2464 2.45771 L -6.2359 2.41744 L -6.23569 2.41663 L -6.21853 2.37873 L -6.21819 2.37796 L -6.19487 2.3435 L -6.1944 2.34281 L -6.16559 2.31279 L -6.16501 2.31219 L -6.13153 2.28748 L -6.13086 2.28698 L -6.09368 2.26829 L -6.09294 2.26792 L -6.05314 2.25578 L -6.05234 2.25554 L -6.01106 2.25031 L -6.01023 2.25021 L -5.96866 2.25204 L -5.96782 2.25208 L -5.92716 2.26092 L -5.92635 2.2611 L -5.88777 2.27669 L -5.88699 2.277 L -5.85161 2.29889 L -5.8509 2.29933 L -5.81972 2.32689 L -5.8191 2.32744 L -5.79304 2.35988 L -5.79251 2.36053 L -5.77232 2.39691 L -5.77191 2.39764 L -5.75816 2.43692 L -5.75788 2.4377 L -5.77073 2.74342 L -5.77099 2.74956 L -5.76972 2.81292 L -5.76969 2.8142 L -5.76059 2.87691 L -5.76041 2.87817 L -5.74361 2.93929 L -5.74328 2.94051 L -5.71905 2.99908 L -5.71856 3.00025 L -5.68728 3.05537 L -5.68665 3.05648 L -5.64878 3.1073 L -5.64802 3.10832 L -5.60416 3.15406 L -5.60328 3.15498 L -5.55409 3.19495 L -5.55311 3.19575 L -5.49935 3.22932 L -5.49827 3.23 L -5.44078 3.25666 L -5.43962 3.25719 L -5.37927 3.27654 L -5.37806 3.27692 L -5.31577 3.28865 L -5.31452 3.28888 L -5.31325 3.28896 L -5.25 3.29289 L -5.32313 3.32327 L -5.3246 3.32388 L -5.39404 3.36195 L -5.39543 3.36271 L -5.46038 3.40803 L -5.46168 3.40894 L -5.52137 3.46098 L -5.52257 3.46202 L -5.57632 3.52018 L -5.5774 3.52135 L -5.62458 3.58495 L -5.62553 3.58622 L -5.6656 3.65453 L -5.6664 3.6559 L -5.69889 3.72812 L -5.69955 3.72957 L -5.72408 3.80486 L -5.72457 3.80638 L -5.74087 3.88387 L -5.7412 3.88543 L -5.74906 3.96423 L -5.74922 3.96581 L -5.74856 4.045 L -5.74855 4.04659 L -5.73938 4.12525 L -5.7392 4.12683 L -5.72162 4.20404 L -5.72127 4.20559 L -5.69549 4.28047 L -5.69497 4.28197 L -5.66129 4.35364 L -5.66062 4.35508 L -5.61942 4.42272 L -5.61859 4.42407 L -5.57037 4.48688 L -5.5694 4.48814 L -5.51469 4.5454 L -5.51359 4.54655 L -5.45305 4.5976 L -5.45183 4.59862 L -5.38615 4.64285 L -5.38483 4.64374 L -5.31477 4.68066 L -5.31336 4.6814 L -5.23974 4.71056 L -5.23826 4.71115 L -5.16192 4.73223 L -5.16039 4.73265 L -5.08223 4.74539 L -5.08066 4.74565 L -5.00159 4.74991 L -5 4.75 L -4.92092 4.74573 L -4.91934 4.74565 L -4.84118 4.7329 L -4.83961 4.73265 L -4.76327 4.71157 L -4.76174 4.71115 L -4.68812 4.68198 L -4.68664 4.6814 L -4.61658 4.64448 L -4.61517 4.64374 L -4.54949 4.59951 L -4.54817 4.59862 L -4.48762 4.54758 L -4.4864 4.54655 L -4.4317 4.48929 L -4.4306 4.48814 L -4.38237 4.42533 L -4.3814 4.42407 L -4.34021 4.35644 L -4.33938 4.35508 L -4.3057 4.28341 L -4.30502 4.28197 L -4.27925 4.2071 L -4.27873 4.20559 L -4.26115 4.12838 L -4.2608 4.12683 L -4.25163 4.04817 L -4.25145 4.04659 L -4.25079 3.9674 L -4.25078 3.96581 L -4.25864 3.88701 L -4.2588 3.88543 L -4.2751 3.80793 L -4.27542 3.80638 L -4.29996 3.73108 L -4.30045 3.72957 L -4.33294 3.65735 L -4.33359 3.6559 L -4.37366 3.5876 L -4.37447 3.58622 L -4.42165 3.52262 L -4.4226 3.52135 L -4.47635 3.46319 L -4.47743 3.46202 L -4.53712 3.40999 L -4.53832 3.40894 L -4.60326 3.36363 L -4.60456 3.36271 L -4.60596 3.36195 L -4.6754 3.32388 L -4.67687 3.32327 L -4.75 3.29289 L -4.75 2.27053 L -4.75 2.25 L -4.50492 2.25 L -4.5 2.25 L -4.5 2.74016 L -4.5 2.75 L -4.49992 2.75085 L -4.4962 2.79341 L -4.49598 2.79424 L -4.48492 2.8355 L -4.48456 2.83628 L -4.46651 2.875 L -4.46601 2.8757 L -4.44151 2.9107 L -4.4409 2.9113 L -4.4107 2.94151 L -4.40999 2.942 L -4.375 2.96651 L -4.37422 2.96687 L -4.3355 2.98492 L -4.33468 2.98514 L -4.29341 2.9962 L -4.29256 2.99628 L -4.25 3 L -4.24914 2.99992 L -4.20659 2.9962 L -4.20576 2.99598 L -4.16449 2.98492 L -4.16372 2.98456 L -4.125 2.96651 L -4.1243 2.96601 L -4.0893 2.94151 L -4.0887 2.9409 L -4.05849 2.9107 L -4.058 2.90999 L -4.03349 2.875 L -4.03313 2.87422 L -4.01508 2.8355 L -4.01485 2.83468 L -4.0038 2.79341 L -4.00372 2.79256 L -4 2.75 L -3.99992 2.74914 L -3.9962 2.70659 L -3.99598 2.70576 L -3.98492 2.66449 L -3.98456 2.66372 L -3.96651 2.625 L -3.96601 2.6243 L -3.94151 2.5893 L -3.9409 2.5887 L -3.9107 2.55849 L -3.90999 2.558 L -3.875 2.53349 L -3.87422 2.53313 L -3.8355 2.51508 L -3.83468 2.51485 L -3.79341 2.5038 L -3.79256 2.50372 L -3.75 2.5 L -3.74914 2.50007 L -3.70659 2.5038 L -3.70576 2.50402 L -3.66449 2.51508 L -3.66372 2.51544 L -3.625 2.53349 L -3.6243 2.53399 L -3.5893 2.55849 L -3.5887 2.55909 L -3.55849 2.5893 L -3.558 2.59001 L -3.53349 2.625 L -3.53313 2.62578 L -3.51508 2.66449 L -3.51485 2.66532 L -3.5038 2.70659 L -3.50372 2.70744 L -3.5 2.75 L -3.5 4.71063 L -3.5 4.75 L -3.49564 4.84231 L -3.49556 4.84416 L -3.48253 4.93565 L -3.48227 4.93749 L -3.46068 5.02734 L -3.46025 5.02915 L -3.4303 5.11657 L -3.4297 5.11833 L -3.39165 5.20254 L -3.39088 5.20423 L -3.34507 5.28449 L -3.34415 5.2861 L -3.29099 5.36169 L -3.28992 5.36321 L -3.22988 5.43345 L -3.22867 5.43486 L -3.16228 5.49914 L -3.16094 5.50043 L -3.08879 5.55817 L -3.08735 5.55933 L -3.01008 5.61003 L -3.00853 5.61104 L -2.92683 5.65424 L -2.92519 5.6551 L -2.83979 5.69041 L -2.83807 5.69112 L -2.74973 5.71823 L -2.74795 5.71877 L -2.65745 5.73744 L -2.65563 5.73781 L -2.56377 5.74788 L -2.56192 5.74808 L -2.65634 5.87264 L -2.65824 5.87514 L -2.75914 5.99451 L -2.76117 5.9969 L -2.86827 6.11074 L -2.87042 6.11303 L -2.98342 6.22101 L -2.98569 6.22318 L -3.10426 6.32501 L -3.10664 6.32706 L -3.23046 6.42245 L -3.23295 6.42436 L -3.36166 6.51304 L -3.36425 6.51482 L -3.49749 6.59653 L -3.50016 6.59817 L -3.63756 6.67269 L -3.64031 6.67418 L -3.78147 6.74129 L -3.78431 6.74264 L -3.92883 6.80216 L -3.93173 6.80336 L -4.07922 6.85511 L -4.08218 6.85615 L -4.2322 6.9 L -4.23522 6.90088 L -4.38736 6.93669 L -4.39041 6.93741 L -4.54424 6.9651 L -4.54733 6.96565 L -4.70241 6.98512 L -4.70553 6.98551 L -4.86143 6.99671 L -4.86456 6.99694 L -5.02083 6.99984 L -5.02397 6.9999 L -5.18018 6.9945 L -5.18331 6.99439 L -5.33901 6.9807 L -5.34214 6.98042 L -5.34525 6.97998 L -5.5 6.95804 L -5.5 5.77378 L -5.5 5.75 L -5.50009 5.7484 L -5.5044 5.66891 L -5.50465 5.66733 L -5.51753 5.58877 L -5.51796 5.58723 L -5.53926 5.51052 L -5.53985 5.50904 L -5.56932 5.43508 L -5.57007 5.43367 L -5.60736 5.36333 L -5.60825 5.36201 L -5.65293 5.29612 L -5.65396 5.2949 L -5.7055 5.23422 L -5.70666 5.23312 L -5.76446 5.17838 L -5.76573 5.17741 L -5.82911 5.12923 L -5.83048 5.12841 L -5.89869 5.08736 L -5.90014 5.08669 L -5.9724 5.05327 L -5.97391 5.05276 L -6.04935 5.02734 L -6.05091 5.02699 L -6.12866 5.00988 L -6.13025 5.00971 L -6.20939 5.0011 L -6.21099 5.0011 L -6.2906 5.0011 L -6.29219 5.00127 L -6.37134 5.00988 L -6.3729 5.01022 L -6.45064 5.02734 L -6.45216 5.02785 L -6.5276 5.05327 L -6.52905 5.05394 L -6.60131 5.08736 L -6.60267 5.08819 L -6.67089 5.12923 L -6.67216 5.1302 L -6.73554 5.17838 L -6.7367 5.17948 L -6.7945 5.23422 L -6.79553 5.23544 L -6.84707 5.29612 L -6.84797 5.29744 L -6.89264 5.36333 L -6.89339 5.36475 L -6.93068 5.43508 L -6.93127 5.43657 L -6.96074 5.51052 L -6.96117 5.51206 L -6.98246 5.58877 L -6.98272 5.59035 L -6.9956 5.66891 L -6.99569 5.67051 L -7 5.75 L -7 6.2265 L -7 6.23607 L -6.88544 6.33338 L -6.88314 6.33533 L -6.76375 6.42667 L -6.76135 6.4285 L -6.63746 6.51362 L -6.63497 6.51532 L -6.50689 6.594 L -6.50432 6.59558 L -6.37238 6.6676 L -6.36973 6.66905 L -6.23429 6.73424 L -6.23157 6.73555 L -6.09298 6.79373 L -6.09019 6.7949 L -5.94881 6.84593 L -5.94597 6.84695 L -5.80216 6.89069 L -5.79927 6.89157 L -5.79634 6.8923 L -5.65048 6.92863 L -5.50296 6.95746 L -5.5 6.95804 L -5.49689 6.95848 L -5.34214 6.98042 L -5.18644 6.99412 L -5.18331 6.99439 L -5.02711 6.99979 L -5.02397 6.9999 L -4.8677 6.997 L -4.86456 6.99694 L -4.70866 6.98574 L -4.70553 6.98551 L -4.55045 6.96604 L -4.54733 6.96565 L -4.3935 6.93797 L -4.39041 6.93741 L -4.23827 6.9016 L -4.23522 6.90088 L -4.08519 6.85703 L -4.08218 6.85615 L -3.9347 6.80439 L -3.93173 6.80336 L -3.78721 6.74384 L -3.78431 6.74264 L -3.64315 6.67553 L -3.64031 6.67418 L -3.50292 6.59967 L -3.50016 6.59817 L -3.36692 6.51646 L -3.36425 6.51482 L -3.23553 6.42614 L -3.23295 6.42436 L -3.10913 6.32897 L -3.10664 6.32706 L -2.98807 6.22523 L -2.98569 6.22318 L -2.87269 6.1152 L -2.87042 6.11303 L -2.76332 5.99919 L -2.76117 5.9969 L -2.66026 5.87754 L -2.65824 5.87514 L -2.56382 5.75058 L -2.56192 5.74808 L -2.47634 5.62194 L -2.47462 5.61941 L -2.39569 5.489 L -2.39411 5.48638 L -2.32204 5.35206 L -2.3206 5.34937 L -2.25558 5.21149 L -2.25428 5.20873 L -2.1965 5.06767 L -2.19534 5.06484 L -2.14495 4.92098 L -2.14393 4.91809 L -2.10106 4.77181 L -2.1002 4.76887 L -2.06497 4.62057 L -2.06426 4.61759 L -2.03675 4.46766 L -2.0362 4.46465 L -2.0165 4.3135 L -2.01611 4.31046 L -2.00427 4.15849 L -2.00403 4.15544 L -2.00395 4.15238 L -2 4 L -1.50984 4 L -1.5 4 L -0.0295276 4 L 0 4 L -8.74982e-005 3.99585 L -0.00444491 3.78922 L -0.00470725 3.78507 L -0.0177717 3.57881 L -0.0182084 3.57468 L -0.0399568 3.36915 L -0.0405671 3.36504 L -0.0709606 3.16061 L -0.0717434 3.15654 L -0.110728 2.95357 L -0.111682 2.94953 L -0.159188 2.74838 L -0.160312 2.74439 L -0.216256 2.54542 L -0.217546 2.54148 L -0.281828 2.34505 L -0.283284 2.34116 L -0.355789 2.14762 L -0.357408 2.1438 L -0.438008 1.95348 L -0.439786 1.94973 L -0.528337 1.76298 L -0.530272 1.75931 L -0.626617 1.57646 L -0.628705 1.57288 L -0.732673 1.39425 L -0.73491 1.39076 L -0.846316 1.21667 L -0.848698 1.21327 L -0.967344 1.04404 L -0.969868 1.04075 L -1.09554 0.876667 L -1.0982 0.873482 L -1.23068 0.714845 L -1.23347 0.711775 L -1.37252 0.558864 L -1.37544 0.555914 L -1.52081 0.409002 L -1.52386 0.406177 L -1.67529 0.265524 L -1.67845 0.26283 L -1.83568 0.128685 L -1.83895 0.126127 L -2.00169 -0.00126989 L -2.00507 -0.00368803 L -2.17304 -0.124111 L -2.17651 -0.126385 L -2.34941 -0.23962 L -2.35297 -0.241745 L -2.53049 -0.34759 L -2.53414 -0.349564 L -2.71597 -0.447831 L -2.7197 -0.449649 L -2.9055 -0.540164 L -2.90931 -0.541823 L -3.09876 -0.624424 L -3.10263 -0.625921 L -3.2954 -0.700463 L -3.29933 -0.701795 L -3.49507 -0.768144 L -3.49906 -0.76931 L -3.69742 -0.827348 L -3.70145 -0.828344 L -3.90208 -0.877969 L -3.90615 -0.878794 L -4.1087 -0.919916 L -4.1128 -0.92057 L -4.3169 -0.953117 L -4.32102 -0.953597 L -4.52631 -0.977511 L -4.53045 -0.977817 L -4.73656 -0.993055 L -4.74071 -0.993186 L -4.94729 -0.999722 L -4.95144 -0.999678 L -5.15811 -0.997499 L -5.16225 -0.997281 L -5.36864 -0.986391 L -5.37277 -0.985998 L -5.57852 -0.966418 L -5.58264 -0.965851 L -5.78738 -0.937614 L -5.79146 -0.936874 L -5.99483 -0.900032 L -5.99888 -0.89912 L -6.20051 -0.853737 L -6.20452 -0.852656 L -6.40406 -0.798813 L -6.40802 -0.797563 L -6.60512 -0.735356 L -6.60902 -0.733941 L -6.80332 -0.66348 L -6.80715 -0.661902 L -6.99831 -0.583313 L -7.00208 -0.581574 L -7.18975 -0.494997 L -7.19344 -0.493101 L -7.37729 -0.398688 L -7.3809 -0.396639 L -7.56062 -0.294559 L -7.56413 -0.292359 L -7.73938 -0.182795 L -7.74281 -0.180449 L -7.91328 -0.0635937 L -7.9166 -0.061105 L -8.082 0.0628326 L -8.08521 0.0654591 L -8.24523 0.196259 L -8.24833 0.199019 L -8.4027 0.336448 L -8.40568 0.339336 L -8.55412 0.483151 L -8.55698 0.486162 L -8.69922 0.636107 L -8.70194 0.639236 L -8.83774 0.795044 L -8.84033 0.798285 L -8.96944 0.959679 L -8.97189 0.963026 L -9.09408 1.12972 L -9.09639 1.13317 L -9.21144 1.30486 L -9.2136 1.30841 L -9.32131 1.4848 L -9.32333 1.48843 L -9.4235 1.66921 L -9.42536 1.67292 L -9.51783 1.85776 L -9.51953 1.86154 L -9.60412 2.05012 L -9.60566 2.05397 L -9.68223 2.24595 L -9.6836 2.24986 L -9.75201 2.44489 L -9.75322 2.44886 L -9.81335 2.6466 L -9.81438 2.65062 L -9.86612 2.85072 L -9.86699 2.85478 L -9.91024 3.05688 L -9.91094 3.06097 L -9.94564 3.26472 L -9.94616 3.26883 L -9.97224 3.47386 L -9.97259 3.478 L -9.99 3.68394 L -9.99017 3.68809 L -9.99889 3.89458 L -9.99889 3.89873 L -9.99889 4.10541 L -9.99871 4.10956 L -9.99 4.31606 L -9.98965 4.32019 L -9.97224 4.52614 L -9.97172 4.53025 L -9.94564 4.73528 L -9.94494 4.73937 L -9.91024 4.94312 L -9.90938 4.94718 L -9.86612 5.14928 L -9.86508 5.1533 L -9.81335 5.3534 L -9.81214 5.35737 L -9.75201 5.55511 L -9.75064 5.55902 L -9.68223 5.75405 L -9.68069 5.75791 L -9.60412 5.94988 L -9.60242 5.95367 L -9.51783 6.14224 L -9.51597 6.14595 L -9.4235 6.33079 L -9.42149 6.33442 L -9.32131 6.5152 L -9.31915 6.51874 L -9.21144 6.69514 L -9.20913 6.69858 L -9.09408 6.87028 L -9.09163 6.87363 L -8.96944 7.04032 L -8.96685 7.04356 L -8.83774 7.20495 L -8.83501 7.20808 L -8.69922 7.36389 L -8.69636 7.3669 L -8.55412 7.51685 L -8.55114 7.51974 L -8.4027 7.66355 L -8.3996 7.66631 L -8.24523 7.80374 L -8.24202 7.80637 L -8.082 7.93717 L -8.07868 7.93965 L -7.91328 8.06359 L -7.90986 8.06594 L -7.73938 8.18279 L -7.73586 8.18499 L -7.56062 8.29456 L -7.55701 8.29661 L -7.37729 8.39869 L -7.3736 8.40058 L -7.18975 8.495 L -7.18598 8.49673 L -6.99831 8.58331 L -6.99447 8.58489 L -6.80332 8.66348 L -6.79941 8.66489 L -6.60512 8.73535 L -6.60116 8.7366 L -6.40406 8.79881 L -6.40006 8.79989 L -6.20051 8.85374 L -6.19646 8.85465 L -5.99483 8.90003 L -5.99075 8.90077 L -5.78738 8.93761 L -5.78327 8.93818 L -5.57852 8.96642 L -5.57439 8.96681 L -5.36864 8.98639 L -5.3645 8.98661 L -5.15811 8.9975 L -5.15396 8.99754 L -4.94729 8.99972 L -4.94314 8.99959 L -4.73656 8.99305 L -4.73243 8.99275 L -4.52631 8.97751 L -4.52219 8.97703 L -4.3169 8.95312 L -4.3128 8.95246 L -4.1087 8.91991 L -4.10463 8.91909 L -3.90208 8.87797 L -3.89805 8.87697 L -3.69742 8.82735 L -3.69344 8.82618 L -3.49507 8.76814 L -3.49114 8.76681 L -3.2954 8.70046 L -3.29153 8.69896 L -3.09876 8.62442 L -3.09496 8.62276 L -2.9055 8.54016 L -2.90177 8.53835 L -2.71597 8.44783 L -2.71232 8.44586 L -2.53049 8.34759 L -2.52693 8.34546 L -2.34941 8.23962 L -2.34594 8.23734 L -2.17304 8.12411 L -2.16967 8.12169 L -2.00169 8.00127 L -1.99843 7.99871 L -1.83568 7.87131 L -1.83252 7.86862 L -1.67529 7.73447 L -1.67225 7.73165 L -1.52081 7.591 L -1.5179 7.58805 L -1.37252 7.44113 L -1.36973 7.43806 L -1.23068 7.28515 L -1.22802 7.28197 L -1.09554 7.12333 L -1.09302 7.12004 L -0.967344 6.95596 L -0.964962 6.95256 L -0.846316 6.78333 L -0.844079 6.77983 L -0.732673 6.60575 L -0.730585 6.60216 L -0.626617 6.42353 L -0.624683 6.41986 L -0.528337 6.23701 L -0.526559 6.23326 L -0.438008 6.04652 L -0.436389 6.04269 L -0.355789 5.85238 L -0.354333 5.84849 L -0.281828 5.65495 L -0.280537 5.651 L -0.216256 5.45457 L -0.215132 5.45058 L -0.159188 5.25162 L -0.158235 5.24758 L -0.110728 5.04643 L -0.109945 5.04236 L -0.0709606 4.83939 L -0.0703503 4.83528 L -0.0399568 4.63085 L -0.0395201 4.62672 L -0.0177717 4.42119 L -0.0175094 4.41705 L -0.00444491 4.21078 L -0.00435741 4.20663 L 0 4 L -1.47047 4 L -1.5 4 L -1.5 2.77461 L -1.5 2.75 L -1.42051 2.74569 L -1.41891 2.7456 L -1.34035 2.73272 L -1.33877 2.73246 L -1.26206 2.71117 L -1.26052 2.71074 L -1.18657 2.68127 L -1.18508 2.68068 L -1.11475 2.64339 L -1.11333 2.64264 L -1.04744 2.59797 L -1.04612 2.59707 L -0.985444 2.54553 L -0.984225 2.5445 L -0.929478 2.4867 L -0.928378 2.48554 L -0.8802 2.42216 L -0.879233 2.42089 L -0.83819 2.35268 L -0.837366 2.35131 L -0.803939 2.27905 L -0.803267 2.2776 L -0.777848 2.20216 L -0.777337 2.20065 L -0.760224 2.1229 L -0.75988 2.12134 L -0.751273 2.04219 L -0.7511 2.0406 L -0.7511 1.96099 L -0.7511 1.9594 L -0.759707 1.88025 L -0.75988 1.87866 L -0.776994 1.80091 L -0.777337 1.79935 L -0.802757 1.72391 L -0.803267 1.7224 L -0.836695 1.65014 L -0.837366 1.64869 L -0.878409 1.58048 L -0.879233 1.57911 L -0.927411 1.51573 L -0.928378 1.51446 L -0.983126 1.45666 L -0.984225 1.4555 L -1.0449 1.40396 L -1.04612 1.40293 L -1.11201 1.35825 L -1.11333 1.35736 L -1.18367 1.32007 L -1.18508 1.31932 L -1.25904 1.28985 L -1.26052 1.28926 L -1.33723 1.26796 L -1.33877 1.26753 L -1.41733 1.25465 L -1.41891 1.2544 L -1.4984 1.25009 L -1.5 1.25 L -1.50008 1.24818 L -1.50427 1.15773 L -1.51678 1.06805 L -1.51703 1.06625 L -1.53776 0.978107 L -1.53817 0.976337 L -1.56695 0.890482 L -1.56753 0.888758 L -1.6041 0.805925 L -1.60484 0.804262 L -1.6489 0.725156 L -1.64978 0.723568 L -1.70095 0.648865 L -1.70198 0.647365 L -1.75983 0.577703 L -1.76099 0.576304 L -1.82502 0.512277 L -1.8263 0.510991 L -1.89597 0.453144 L -1.89736 0.451983 L -1.97207 0.40081 L -1.97357 0.399783 L -2.05267 0.355721 L -2.05426 0.354837 L -2.13709 0.318262 L -2.13876 0.317528 L -2.22461 0.288752 L -2.22634 0.288174 L -2.31448 0.267443 L -2.31625 0.267027 L -2.40593 0.254517 L -2.40773 0.254266 L -2.49818 0.250084 L -2.5 0.25 L -2.59045 0.254182 L -2.59227 0.254266 L -2.68195 0.266776 L -2.68375 0.267027 L -2.77189 0.287758 L -2.77366 0.288174 L -2.85952 0.31695 L -2.86124 0.317528 L -2.94407 0.354102 L -2.94574 0.354837 L -3.02484 0.398898 L -3.02643 0.399783 L -3.10113 0.450955 L -3.10263 0.451983 L -3.1723 0.509829 L -3.17369 0.510991 L -3.23772 0.575019 L -3.23901 0.576304 L -3.29685 0.645966 L -3.29802 0.647365 L -3.34919 0.722068 L -3.35022 0.723568 L -3.39428 0.802673 L -3.39516 0.804262 L -3.43174 0.887095 L -3.43247 0.888758 L -3.46125 0.974613 L -3.46183 0.976337 L -3.48256 1.06448 L -3.48297 1.06625 L -3.49548 1.15593 L -3.49573 1.15773 L -3.49992 1.24818 L -3.5 1.25 L -3.5 1.49508 L -3.5 1.5 L -3.50007 1.50085 L -3.5038 1.54341 L -3.50402 1.54424 L -3.51508 1.5855 L -3.51544 1.58628 L -3.53349 1.625 L -3.53398 1.6257 L -3.55849 1.6607 L -3.55909 1.6613 L -3.5893 1.69151 L -3.59001 1.692 L -3.625 1.71651 L -3.62578 1.71687 L -3.66449 1.73492 L -3.66532 1.73514 L -3.70659 1.7462 L -3.70744 1.74628 L -3.75 1.75 L -3.75085 1.74992 L -3.79341 1.7462 L -3.79424 1.74598 L -3.8355 1.73492 L -3.83628 1.73456 L -3.875 1.71651 L -3.8757 1.71601 L -3.9107 1.69151 L -3.9113 1.6909 L -3.94151 1.6607 L -3.942 1.65999 L -3.96651 1.625 L -3.96687 1.62422 L -3.98492 1.5855 L -3.98514 1.58468 L -3.9962 1.54341 L -3.99628 1.54256 L -4 1.5 L -4 -0.215551 L -4 -0.25 L -4.00007 -0.250855 L -4.0038 -0.293412 L -4.00402 -0.294241 L -4.01508 -0.335505 L -4.01544 -0.336282 L -4.03349 -0.375 L -4.03398 -0.375703 L -4.05849 -0.410697 L -4.05909 -0.411303 L -4.0893 -0.441511 L -4.09001 -0.442003 L -4.125 -0.466506 L -4.12578 -0.466869 L -4.16449 -0.484923 L -4.16532 -0.485145 L -4.20659 -0.496202 L -4.20744 -0.496277 L -4.25 -0.5 L -4.25085 -0.499925 L -4.29341 -0.496202 L -4.29424 -0.49598 L -4.3355 -0.484923 L -4.33628 -0.484561 L -4.375 -0.466506 L -4.3757 -0.466014 L -4.4107 -0.441511 L -4.4113 -0.440904 L -4.44151 -0.410697 L -4.442 -0.409994 L -4.46651 -0.375 L -4.46687 -0.374222 L -4.48492 -0.335505 L -4.48514 -0.334676 L -4.4962 -0.293412 L -4.49628 -0.292557 L -4.5 -0.25 L -4.5 1.71063 L -4.5 1.75 L -4.74508 1.75 L -4.75 1.75 L -4.75 0.769685 L -4.75 0.75 L -4.75008 0.748715 L -4.75428 0.684737 L -4.76678 0.621853 L -4.76704 0.62059 L -4.78765 0.559877 L -4.78806 0.558658 L -4.81642 0.501155 L -4.81699 0.5 L -4.85261 0.44669 L -4.85332 0.445619 L -4.8956 0.397415 L -4.89645 0.396447 L -4.94465 0.354172 L -4.94562 0.353323 L -4.99893 0.317703 L -5 0.316987 L -5.0575 0.28863 L -5.05866 0.28806 L -5.11937 0.267451 L -5.12059 0.267037 L -5.18347 0.254529 L -5.18474 0.254278 L -5.24871 0.250084 L -5.25 0.25 L -5.31398 0.254193 L -5.31526 0.254278 L -5.37815 0.266786 L -5.37941 0.267037 L -5.44012 0.287646 L -5.44134 0.28806 L -5.49884 0.316418 L -5.5 0.316987 L -5.55331 0.352608 L -5.55438 0.353323 L -5.60258 0.395598 L -5.60355 0.396447 L -5.64583 0.444651 L -5.64668 0.445619 L -5.6823 0.498929 L -5.68301 0.5 L -5.71137 0.557504 L -5.71194 0.558658 L -5.73255 0.619371 L -5.73296 0.62059 L -5.74547 0.683474 L -5.74572 0.684737 L -5.74991 0.748715 L -5.75 0.75 L -5.75 1.24016 L -5.75 1.25 L -5.75007 1.25085 L -5.7538 1.29341 L -5.75402 1.29424 L -5.76508 1.3355 L -5.76544 1.33628 L -5.78349 1.375 L -5.78398 1.3757 L -5.80849 1.4107 L -5.80909 1.4113 L -5.8393 1.44151 L -5.84 1.442 L -5.875 1.46651 L -5.87578 1.46687 L -5.91449 1.48492 L -5.91532 1.48514 L -5.95659 1.4962 L -5.95744 1.49628 L -6 1.5 L -6.00085 1.49992 L -6.04341 1.4962 L -6.04424 1.49598 L -6.0855 1.48492 L -6.08628 1.48456 L -6.125 1.46651 L -6.1257 1.46601 L -6.1607 1.44151 L -6.1613 1.4409 L -6.19151 1.4107 L -6.192 1.40999 L -6.21651 1.375 L -6.21687 1.37422 L -6.23492 1.3355 L -6.23514 1.33468 L -6.2462 1.29341 L -6.24628 1.29256 L -6.25 1.25 L -6.25 0.514764 L -6.25 0.5 L -6.25009 0.498404 L -6.2544 0.418911 L -6.25465 0.417333 L -6.26753 0.338772 L -6.26796 0.337232 L -6.28926 0.260524 L -6.28985 0.259039 L -6.31932 0.185083 L -6.32007 0.183671 L -6.35736 0.113335 L -6.35825 0.112011 L -6.40293 0.0461193 L -6.40396 0.0449009 L -6.4555 -0.0157746 L -6.45666 -0.0168739 L -6.51446 -0.0716215 L -6.51573 -0.072589 L -6.57911 -0.120767 L -6.58048 -0.121591 L -6.64869 -0.162634 L -6.65014 -0.163305 L -6.72239 -0.196732 L -6.72391 -0.197243 L -6.79935 -0.222662 L -6.80091 -0.223006 L -6.87866 -0.24012 L -6.88025 -0.240293 L -6.95939 -0.2489 L -6.96099 -0.2489 L -7.0406 -0.2489 L -7.04219 -0.248727 L -7.12134 -0.24012 L -7.1229 -0.239776 L -7.20065 -0.222662 L -7.20216 -0.222152 L -7.2776 -0.196732 L -7.27905 -0.196061 L -7.3513 -0.162634 L -7.35267 -0.16181 L -7.42089 -0.120767 L -7.42216 -0.119799 L -7.48554 -0.0716215 L -7.4867 -0.0705222 L -7.54449 -0.0157746 L -7.54553 -0.0145562 L -7.59707 0.0461193 L -7.59797 0.0474425 L -7.64264 0.113335 L -7.64339 0.114747 L -7.68068 0.185083 L -7.68127 0.186568 L -7.71074 0.260524 L -7.71117 0.262064 L -7.73246 0.338772 L -7.73272 0.34035 L -7.7456 0.418911 L -7.74569 0.420507 L -7.75 0.5 L -7.75 1.72539 L -7.75 1.75 L -7.79205 1.75 L -7.79289 1.75 L -7.82327 1.67687 L -7.82388 1.6754 L -7.86195 1.60596 L -7.86271 1.60456 L -7.90803 1.53962 L -7.90894 1.53832 L -7.96098 1.47863 L -7.96202 1.47743 L -8.02018 1.42368 L -8.02135 1.4226 L -8.08495 1.37541 L -8.08622 1.37447 L -8.15453 1.3344 L -8.1559 1.33359 L -8.22812 1.3011 L -8.22957 1.30045 L -8.30486 1.27592 L -8.30638 1.27542 L -8.38387 1.25913 L -8.38543 1.2588 L -8.46423 1.25094 L -8.46581 1.25078 L -8.545 1.25143 L -8.54659 1.25145 L -8.62525 1.26062 L -8.62682 1.2608 L -8.70404 1.27838 L -8.70559 1.27873 L -8.78047 1.30451 L -8.78197 1.30502 L -8.85364 1.33871 L -8.85508 1.33938 L -8.92271 1.38058 L -8.92407 1.3814 z  M -5.04171 5.61233 L -5.05461 5.67994 L -5.05469 5.68131 L -5.05902 5.75 L -5.05893 5.75138 L -5.05461 5.82006 L -5.05435 5.82142 L -5.04145 5.88902 L -5.04103 5.89033 L -5.01976 5.95579 L -5.01917 5.95704 L -4.98987 6.01931 L -4.98913 6.02047 L -4.95225 6.07858 L -4.95137 6.07965 L -4.9075 6.13267 L -4.9065 6.13362 L -4.85633 6.18073 L -4.85521 6.18154 L -4.79954 6.22199 L -4.79832 6.22266 L -4.73802 6.25581 L -4.73673 6.25632 L -4.67274 6.28166 L -4.67141 6.282 L -4.60475 6.29911 L -4.60338 6.29929 L -4.5351 6.30791 L -4.53372 6.30791 L -4.4649 6.30791 L -4.46353 6.30774 L -4.39525 6.29911 L -4.39391 6.29877 L -4.32725 6.28166 L -4.32597 6.28115 L -4.26198 6.25581 L -4.26077 6.25515 L -4.20046 6.22199 L -4.19934 6.22118 L -4.14367 6.18073 L -4.14266 6.17978 L -4.09249 6.13267 L -4.09161 6.13161 L -4.04774 6.07858 L -4.047 6.07741 L -4.01013 6.01931 L -4.00954 6.01806 L -3.98024 5.95579 L -3.97981 5.95447 L -3.95854 5.88902 L -3.95829 5.88766 L -3.94539 5.82006 L -3.9453 5.81868 L -3.94098 5.75 L -3.94107 5.74862 L -3.94539 5.67994 L -3.94565 5.67858 L -3.95854 5.61098 L -3.95897 5.60966 L -3.98024 5.54421 L -3.98083 5.54296 L -4.01013 5.48069 L -4.01087 5.47952 L -4.04774 5.42142 L -4.04863 5.42035 L -4.09249 5.36733 L -4.0935 5.36638 L -4.14367 5.31927 L -4.14479 5.31846 L -4.20046 5.27801 L -4.20167 5.27734 L -4.26198 5.24419 L -4.26327 5.24368 L -4.32725 5.21834 L -4.32859 5.218 L -4.39525 5.20088 L -4.39662 5.20071 L -4.4649 5.19208 L -4.46628 5.19208 L -4.5351 5.19208 L -4.53647 5.19226 L -4.60475 5.20088 L -4.60609 5.20123 L -4.67274 5.21834 L -4.67403 5.21885 L -4.73802 5.24419 L -4.73923 5.24485 L -4.79954 5.27801 L -4.80065 5.27882 L -4.85633 5.31927 L -4.85734 5.32022 L -4.9075 5.36733 L -4.90839 5.36839 L -4.95225 5.42142 L -4.95299 5.42258 L -4.98987 5.48069 L -4.99046 5.48194 L -5.01976 5.54421 L -5.02019 5.54553 L -5.04145 5.61098 z  " fill= "none" stroke="rgb(0,0,255)" stroke-width="0.0019685in" />
</svg>
